<?xml version="1.0" standalone="no"?>
<!DOCTYPE svg PUBLIC "-//W3C//DTD SVG 20010904//EN"
 "http://www.w3.org/TR/2001/REC-SVG-20010904/DTD/svg10.dtd">
<svg version="1.0" xmlns="http://www.w3.org/2000/svg"
 width="1280.000000pt" height="1280.000000pt" viewBox="0 0 1280.000000 1280.000000"
 preserveAspectRatio="xMidYMid meet">
<g transform="translate(0.000000,1280.000000) scale(0.100000,-0.100000)"
fill="#000000" stroke="none">
<path d="M580 12521 c0 -154 -3 -286 -6 -295 -5 -14 -40 -16 -290 -16 l-284 0
0 -1010 0 -1010 284 0 c250 0 285 -2 290 -16 8 -20 8 -1128 0 -1148 -5 -14
-40 -16 -290 -16 l-284 0 0 -1010 0 -1010 284 0 c250 0 285 -2 290 -16 8 -20
8 -1128 0 -1148 -5 -14 -40 -16 -290 -16 l-284 0 0 -1010 0 -1010 284 0 c250
0 285 -2 290 -16 3 -9 6 -267 6 -574 0 -307 -3 -565 -6 -574 -5 -14 -40 -16
-290 -16 l-284 0 0 -1010 0 -1010 284 0 c250 0 285 -2 290 -16 3 -9 6 -141 6
-295 l0 -279 1010 0 1010 0 0 279 c0 154 3 286 6 295 6 14 66 16 584 16 518 0
578 -2 584 -16 3 -9 6 -141 6 -295 l0 -279 1010 0 1010 0 0 279 c0 154 3 286
6 295 6 14 66 16 584 16 518 0 578 -2 584 -16 3 -9 6 -141 6 -295 l0 -279
1010 0 1010 0 0 279 c0 154 3 286 6 295 6 14 66 16 584 16 518 0 578 -2 584
-16 3 -9 6 -141 6 -295 l0 -279 1010 0 1010 0 0 279 c0 154 3 286 6 295 5 14
41 16 300 16 l294 0 0 1010 0 1010 -294 0 c-259 0 -295 2 -300 16 -3 9 -6 267
-6 574 0 307 3 565 6 574 5 14 41 16 300 16 l294 0 0 1010 0 1010 -294 0
c-259 0 -295 2 -300 16 -8 20 -8 1128 0 1148 5 14 41 16 300 16 l294 0 0 1010
0 1010 -294 0 c-259 0 -295 2 -300 16 -8 20 -8 1128 0 1148 5 14 41 16 300 16
l294 0 0 1010 0 1010 -294 0 c-259 0 -295 2 -300 16 -3 9 -6 141 -6 295 l0
279 -1010 0 -1010 0 0 -279 c0 -154 -3 -286 -6 -295 -6 -14 -66 -16 -584 -16
-518 0 -578 2 -584 16 -3 9 -6 141 -6 295 l0 279 -1010 0 -1010 0 0 -279 c0
-154 -3 -286 -6 -295 -6 -14 -66 -16 -584 -16 -518 0 -578 2 -584 16 -3 9 -6
141 -6 295 l0 279 -1010 0 -1010 0 0 -279 c0 -154 -3 -286 -6 -295 -6 -14 -66
-16 -584 -16 -518 0 -578 2 -584 16 -3 9 -6 141 -6 295 l0 279 -1010 0 -1010
0 0 -279z m920 180 c16 -30 14 -712 -2 -734 -12 -15 -46 -17 -333 -19 l-320
-3 -5 -330 -5 -330 -375 -3 c-344 -2 -376 -1 -387 15 -19 24 -19 712 0 736 11
15 46 17 337 19 l325 3 3 320 c1 176 4 326 7 333 3 9 88 12 374 12 356 0 371
-1 381 -19z m940 -316 l5 -330 320 -3 c287 -2 321 -4 333 -19 18 -24 18 -712
0 -736 -12 -16 -44 -17 -383 -15 l-370 3 -5 330 -5 330 -325 3 c-291 2 -326 4
-337 19 -17 22 -19 704 -3 734 10 19 23 19 388 17 l377 -3 5 -330z m2260 316
c16 -30 14 -712 -2 -734 -12 -15 -46 -17 -333 -19 l-320 -3 -5 -330 -5 -330
-381 -3 -382 -2 -6 22 c-3 13 -6 179 -6 369 0 261 3 349 13 362 11 15 46 17
337 19 l325 3 3 320 c1 176 4 326 7 333 3 9 88 12 374 12 356 0 371 -1 381
-19z m940 -316 l5 -330 320 -3 c287 -2 321 -4 333 -19 9 -13 12 -103 12 -368
0 -265 -3 -355 -12 -368 -12 -16 -44 -17 -383 -15 l-370 3 -5 330 -5 330 -325
3 c-291 2 -326 4 -337 19 -17 22 -19 704 -3 734 10 19 23 19 388 17 l377 -3 5
-330z m2260 316 c16 -30 14 -712 -2 -734 -12 -15 -46 -17 -333 -19 l-320 -3
-5 -330 -5 -330 -381 -3 -382 -2 -6 22 c-3 13 -6 179 -6 369 0 261 3 349 13
362 11 15 46 17 337 19 l325 3 3 320 c1 176 4 326 7 333 3 9 88 12 374 12 356
0 371 -1 381 -19z m940 -316 l5 -330 320 -3 c287 -2 321 -4 333 -19 9 -13 12
-103 12 -368 0 -265 -3 -355 -12 -368 -12 -16 -44 -17 -383 -15 l-370 3 -5
330 -5 330 -325 3 c-291 2 -326 4 -337 19 -17 22 -19 704 -3 734 10 19 23 19
388 17 l377 -3 5 -330z m2260 316 c16 -30 14 -712 -2 -734 -12 -15 -46 -17
-333 -19 l-320 -3 -5 -330 -5 -330 -381 -3 -382 -2 -6 22 c-3 13 -6 179 -6
369 0 261 3 349 13 362 11 15 46 17 337 19 l325 3 3 320 c1 176 4 326 7 333 3
9 88 12 374 12 356 0 371 -1 381 -19z m940 -316 l5 -330 320 -3 c287 -2 321
-4 333 -19 9 -13 12 -103 12 -368 0 -265 -3 -355 -12 -368 -12 -16 -44 -17
-383 -15 l-370 3 -5 330 -5 330 -325 3 c-291 2 -326 4 -337 19 -17 22 -19 704
-3 734 10 19 23 19 388 17 l377 -3 5 -330z m-9866 -611 c8 -20 8 -1128 0
-1148 -6 -14 -66 -16 -584 -16 -518 0 -578 2 -584 16 -8 20 -8 1128 0 1148 6
14 66 16 584 16 518 0 578 -2 584 -16z m3200 0 c8 -20 8 -1128 0 -1148 -6 -14
-66 -16 -584 -16 -518 0 -578 2 -584 16 -8 20 -8 1128 0 1148 6 14 66 16 584
16 518 0 578 -2 584 -16z m3200 0 c8 -20 8 -1128 0 -1148 -6 -14 -66 -16 -584
-16 -518 0 -578 2 -584 16 -8 20 -8 1128 0 1148 6 14 66 16 584 16 518 0 578
-2 584 -16z m3200 0 c8 -20 8 -1128 0 -1148 -6 -14 -66 -16 -584 -16 -518 0
-578 2 -584 16 -8 20 -8 1128 0 1148 6 14 66 16 584 16 518 0 578 -2 584 -16z
m-10934 -989 l5 -330 320 -3 c287 -2 321 -4 332 -19 19 -24 19 -712 1 -736
-12 -16 -44 -17 -383 -15 l-370 3 -5 330 -5 330 -325 3 c-291 2 -326 4 -337
19 -10 13 -13 101 -13 362 0 190 3 356 6 369 l6 22 382 -2 381 -3 5 -330z
m2260 316 c16 -30 14 -712 -2 -734 -12 -15 -46 -17 -333 -19 l-320 -3 -5 -330
-5 -330 -381 -3 -382 -2 -6 22 c-3 13 -6 179 -6 369 0 261 3 349 13 362 11 15
46 17 337 19 l325 3 3 320 c1 176 4 326 7 333 3 9 88 12 374 12 356 0 371 -1
381 -19z m940 -316 l5 -330 320 -3 c287 -2 321 -4 332 -19 19 -24 19 -712 1
-736 -12 -16 -44 -17 -383 -15 l-370 3 -5 330 -5 330 -325 3 c-291 2 -326 4
-337 19 -10 13 -13 101 -13 362 0 190 3 356 6 369 l6 22 382 -2 381 -3 5 -330z
m2260 316 c16 -30 14 -712 -2 -734 -12 -15 -46 -17 -333 -19 l-320 -3 -5 -330
-5 -330 -381 -3 -382 -2 -6 22 c-3 13 -6 179 -6 369 0 261 3 349 13 362 11 15
46 17 337 19 l325 3 3 320 c1 176 4 326 7 333 3 9 88 12 374 12 356 0 371 -1
381 -19z m940 -316 l5 -330 320 -3 c287 -2 321 -4 333 -19 18 -24 18 -712 0
-736 -12 -16 -44 -17 -383 -15 l-370 3 -5 330 -5 330 -325 3 c-291 2 -326 4
-337 19 -10 13 -13 101 -13 362 0 190 3 356 6 369 l6 22 382 -2 381 -3 5 -330z
m2260 316 c16 -30 14 -712 -2 -734 -12 -15 -46 -17 -333 -19 l-320 -3 -5 -330
-5 -330 -381 -3 -382 -2 -6 22 c-3 13 -6 179 -6 369 0 261 3 349 13 362 11 15
46 17 337 19 l325 3 3 320 c1 176 4 326 7 333 3 9 88 12 374 12 356 0 371 -1
381 -19z m940 -316 l5 -330 320 -3 c287 -2 321 -4 333 -19 9 -13 12 -103 12
-368 0 -265 -3 -355 -12 -368 -12 -16 -44 -17 -383 -15 l-370 3 -5 330 -5 330
-325 3 c-291 2 -326 4 -337 19 -10 13 -13 101 -13 362 0 190 3 356 6 369 l6
22 382 -2 381 -3 5 -330z m2260 316 c16 -30 14 -712 -2 -734 -12 -15 -46 -17
-333 -19 l-320 -3 -5 -330 -5 -330 -381 -3 -382 -2 -6 22 c-3 13 -6 179 -6
369 0 261 3 349 13 362 11 15 46 17 337 19 l325 3 3 320 c1 176 4 326 7 333 3
9 88 12 374 12 356 0 371 -1 381 -19z m-8926 -927 c8 -20 8 -1128 0 -1148 -6
-14 -66 -16 -584 -16 -518 0 -578 2 -584 16 -8 20 -8 1128 0 1148 6 14 66 16
584 16 518 0 578 -2 584 -16z m3200 0 c8 -20 8 -1128 0 -1148 -6 -14 -66 -16
-584 -16 -518 0 -578 2 -584 16 -8 20 -8 1128 0 1148 6 14 66 16 584 16 518 0
578 -2 584 -16z m3200 0 c8 -20 8 -1128 0 -1148 -6 -14 -66 -16 -584 -16 -518
0 -578 2 -584 16 -8 20 -8 1128 0 1148 6 14 66 16 584 16 518 0 578 -2 584
-16z m-8674 -673 c16 -30 14 -712 -2 -734 -12 -15 -46 -17 -333 -19 l-320 -3
-5 -330 -5 -330 -375 -3 c-344 -2 -376 -1 -387 15 -19 24 -19 712 0 736 11 15
46 17 337 19 l325 3 3 320 c1 176 4 326 7 333 3 9 88 12 374 12 356 0 371 -1
381 -19z m940 -316 l5 -330 320 -3 c287 -2 321 -4 332 -19 19 -24 19 -712 1
-736 -12 -16 -44 -17 -383 -15 l-370 3 -5 330 -5 330 -325 3 c-291 2 -326 4
-337 19 -10 13 -13 101 -13 362 0 190 3 356 6 369 l6 22 382 -2 381 -3 5 -330z
m2260 316 c16 -30 14 -712 -2 -734 -12 -15 -46 -17 -333 -19 l-320 -3 -5 -330
-5 -330 -381 -3 -382 -2 -6 22 c-3 13 -6 179 -6 369 0 261 3 349 13 362 11 15
46 17 337 19 l325 3 3 320 c1 176 4 326 7 333 3 9 88 12 374 12 356 0 371 -1
381 -19z m940 -316 l5 -330 320 -3 c287 -2 321 -4 333 -19 18 -24 18 -712 0
-736 -12 -16 -44 -17 -383 -15 l-370 3 -5 330 -5 330 -325 3 c-291 2 -326 4
-337 19 -10 13 -13 101 -13 362 0 190 3 356 6 369 l6 22 382 -2 381 -3 5 -330z
m2260 316 c16 -30 14 -712 -2 -734 -12 -15 -46 -17 -333 -19 l-320 -3 -5 -330
-5 -330 -381 -3 -382 -2 -6 22 c-3 13 -6 179 -6 369 0 261 3 349 13 362 11 15
46 17 337 19 l325 3 3 320 c1 176 4 326 7 333 3 9 88 12 374 12 356 0 371 -1
381 -19z m940 -316 l5 -330 320 -3 c287 -2 321 -4 333 -19 18 -24 18 -712 0
-736 -12 -16 -44 -17 -383 -15 l-370 3 -5 330 -5 330 -325 3 c-291 2 -326 4
-337 19 -10 13 -13 101 -13 362 0 190 3 356 6 369 l6 22 382 -2 381 -3 5 -330z
m2260 316 c16 -30 14 -712 -2 -734 -12 -15 -46 -17 -333 -19 l-320 -3 -5 -330
-5 -330 -381 -3 -382 -2 -6 22 c-3 13 -6 179 -6 369 0 261 3 349 13 362 11 15
46 17 337 19 l325 3 3 320 c1 176 4 326 7 333 3 9 88 12 374 12 356 0 371 -1
381 -19z m940 -316 l5 -330 320 -3 c287 -2 321 -4 333 -19 9 -13 12 -103 12
-368 0 -265 -3 -355 -12 -368 -12 -16 -44 -17 -383 -15 l-370 3 -5 330 -5 330
-325 3 c-291 2 -326 4 -337 19 -10 13 -13 101 -13 362 0 190 3 356 6 369 l6
22 382 -2 381 -3 5 -330z m-9866 -611 c8 -20 8 -1128 0 -1148 -6 -14 -66 -16
-584 -16 -518 0 -578 2 -584 16 -8 20 -8 1128 0 1148 6 14 66 16 584 16 518 0
578 -2 584 -16z m3200 0 c8 -20 8 -1128 0 -1148 -6 -14 -66 -16 -584 -16 -518
0 -578 2 -584 16 -8 20 -8 1128 0 1148 6 14 66 16 584 16 518 0 578 -2 584
-16z m3200 0 c8 -20 8 -1128 0 -1148 -6 -14 -66 -16 -584 -16 -518 0 -578 2
-584 16 -8 20 -8 1128 0 1148 6 14 66 16 584 16 518 0 578 -2 584 -16z m3200
0 c8 -20 8 -1128 0 -1148 -6 -14 -66 -16 -584 -16 -518 0 -578 2 -584 16 -8
20 -8 1128 0 1148 6 14 66 16 584 16 518 0 578 -2 584 -16z m-10934 -989 l5
-330 320 -3 c287 -2 321 -4 332 -19 19 -24 19 -712 1 -736 -12 -16 -44 -17
-383 -15 l-370 3 -5 330 -5 330 -325 3 c-291 2 -326 4 -337 19 -10 13 -13 101
-13 362 0 190 3 356 6 369 l6 22 382 -2 381 -3 5 -330z m2260 316 c16 -30 14
-712 -2 -734 -12 -15 -46 -17 -333 -19 l-320 -3 -5 -330 -5 -330 -381 -3 -382
-2 -6 22 c-3 13 -6 179 -6 369 0 261 3 349 13 362 11 15 46 17 337 19 l325 3
3 320 c1 176 4 326 7 333 3 9 88 12 374 12 356 0 371 -1 381 -19z m940 -316
l5 -330 320 -3 c287 -2 321 -4 332 -19 19 -24 19 -712 1 -736 -12 -16 -44 -17
-383 -15 l-370 3 -5 330 -5 330 -325 3 c-291 2 -326 4 -337 19 -10 13 -13 101
-13 362 0 190 3 356 6 369 l6 22 382 -2 381 -3 5 -330z m2260 316 c16 -30 14
-712 -2 -734 -12 -15 -46 -17 -333 -19 l-320 -3 -5 -330 -5 -330 -381 -3 -382
-2 -6 22 c-3 13 -6 179 -6 369 0 261 3 349 13 362 11 15 46 17 337 19 l325 3
3 320 c1 176 4 326 7 333 3 9 88 12 374 12 356 0 371 -1 381 -19z m940 -316
l5 -330 320 -3 c287 -2 321 -4 333 -19 18 -24 18 -712 0 -736 -12 -16 -44 -17
-383 -15 l-370 3 -5 330 -5 330 -325 3 c-291 2 -326 4 -337 19 -10 13 -13 101
-13 362 0 190 3 356 6 369 l6 22 382 -2 381 -3 5 -330z m2260 316 c16 -30 14
-712 -2 -734 -12 -15 -46 -17 -333 -19 l-320 -3 -5 -330 -5 -330 -381 -3 -382
-2 -6 22 c-3 13 -6 179 -6 369 0 261 3 349 13 362 11 15 46 17 337 19 l325 3
3 320 c1 176 4 326 7 333 3 9 88 12 374 12 356 0 371 -1 381 -19z m940 -316
l5 -330 320 -3 c287 -2 321 -4 333 -19 9 -13 12 -103 12 -368 0 -265 -3 -355
-12 -368 -12 -16 -44 -17 -383 -15 l-370 3 -5 330 -5 330 -325 3 c-291 2 -326
4 -337 19 -10 13 -13 101 -13 362 0 190 3 356 6 369 l6 22 382 -2 381 -3 5
-330z m2260 316 c16 -30 14 -712 -2 -734 -12 -15 -46 -17 -333 -19 l-320 -3
-5 -330 -5 -330 -381 -3 -382 -2 -6 22 c-3 13 -6 179 -6 369 0 261 3 349 13
362 11 15 46 17 337 19 l325 3 3 320 c1 176 4 326 7 333 3 9 88 12 374 12 356
0 371 -1 381 -19z m-8926 -927 c8 -20 8 -1128 0 -1148 -6 -14 -66 -16 -584
-16 -518 0 -578 2 -584 16 -8 20 -8 1128 0 1148 6 14 66 16 584 16 518 0 578
-2 584 -16z m3200 0 c8 -20 8 -1128 0 -1148 -6 -14 -66 -16 -584 -16 -518 0
-578 2 -584 16 -8 20 -8 1128 0 1148 6 14 66 16 584 16 518 0 578 -2 584 -16z
m3200 0 c8 -20 8 -1128 0 -1148 -6 -14 -66 -16 -584 -16 -518 0 -578 2 -584
16 -8 20 -8 1128 0 1148 6 14 66 16 584 16 518 0 578 -2 584 -16z m-8674 -673
c16 -30 14 -712 -2 -734 -12 -15 -46 -17 -333 -19 l-320 -3 -5 -330 -5 -330
-375 -3 c-344 -2 -376 -1 -387 15 -19 24 -19 712 0 736 11 15 46 17 337 19
l325 3 3 320 c1 176 4 326 7 333 3 9 88 12 374 12 356 0 371 -1 381 -19z m940
-316 l5 -330 320 -3 c287 -2 321 -4 332 -19 19 -24 19 -712 1 -736 -12 -16
-44 -17 -383 -15 l-370 3 -5 330 -5 330 -325 3 c-291 2 -326 4 -337 19 -10 13
-13 101 -13 362 0 190 3 356 6 369 l6 22 382 -2 381 -3 5 -330z m2260 316 c16
-30 14 -712 -2 -734 -12 -15 -46 -17 -333 -19 l-320 -3 -5 -330 -5 -330 -381
-3 -382 -2 -6 22 c-3 13 -6 179 -6 369 0 261 3 349 13 362 11 15 46 17 337 19
l325 3 3 320 c1 176 4 326 7 333 3 9 88 12 374 12 356 0 371 -1 381 -19z m940
-316 l5 -330 320 -3 c287 -2 321 -4 333 -19 18 -24 18 -712 0 -736 -12 -16
-44 -17 -383 -15 l-370 3 -5 330 -5 330 -325 3 c-291 2 -326 4 -337 19 -10 13
-13 101 -13 362 0 190 3 356 6 369 l6 22 382 -2 381 -3 5 -330z m2260 316 c16
-30 14 -712 -2 -734 -12 -15 -46 -17 -333 -19 l-320 -3 -5 -330 -5 -330 -381
-3 -382 -2 -6 22 c-3 13 -6 179 -6 369 0 261 3 349 13 362 11 15 46 17 337 19
l325 3 3 320 c1 176 4 326 7 333 3 9 88 12 374 12 356 0 371 -1 381 -19z m940
-316 l5 -330 320 -3 c287 -2 321 -4 333 -19 18 -24 18 -712 0 -736 -12 -16
-44 -17 -383 -15 l-370 3 -5 330 -5 330 -325 3 c-291 2 -326 4 -337 19 -10 13
-13 101 -13 362 0 190 3 356 6 369 l6 22 382 -2 381 -3 5 -330z m2260 316 c16
-30 14 -712 -2 -734 -12 -15 -46 -17 -333 -19 l-320 -3 -5 -330 -5 -330 -381
-3 -382 -2 -6 22 c-3 13 -6 179 -6 369 0 261 3 349 13 362 11 15 46 17 337 19
l325 3 3 320 c1 176 4 326 7 333 3 9 88 12 374 12 356 0 371 -1 381 -19z m940
-316 l5 -330 320 -3 c287 -2 321 -4 333 -19 9 -13 12 -103 12 -368 0 -265 -3
-355 -12 -368 -12 -16 -44 -17 -383 -15 l-370 3 -5 330 -5 330 -325 3 c-291 2
-326 4 -337 19 -10 13 -13 101 -13 362 0 190 3 356 6 369 l6 22 382 -2 381 -3
5 -330z m-9866 -611 c8 -20 8 -1128 0 -1148 -6 -14 -66 -16 -584 -16 -518 0
-578 2 -584 16 -8 20 -8 1128 0 1148 6 14 66 16 584 16 518 0 578 -2 584 -16z
m3200 0 c8 -20 8 -1128 0 -1148 -6 -14 -66 -16 -584 -16 -518 0 -578 2 -584
16 -8 20 -8 1128 0 1148 6 14 66 16 584 16 518 0 578 -2 584 -16z m3200 0 c8
-20 8 -1128 0 -1148 -6 -14 -66 -16 -584 -16 -518 0 -578 2 -584 16 -8 20 -8
1128 0 1148 6 14 66 16 584 16 518 0 578 -2 584 -16z m3200 0 c8 -20 8 -1128
0 -1148 -6 -14 -66 -16 -584 -16 -518 0 -578 2 -584 16 -8 20 -8 1128 0 1148
6 14 66 16 584 16 518 0 578 -2 584 -16z m-10934 -989 l5 -330 320 -3 c287 -2
321 -4 332 -19 19 -24 19 -712 1 -736 -12 -16 -44 -17 -383 -15 l-370 3 -5
330 -5 330 -325 3 c-291 2 -326 4 -337 19 -10 13 -13 101 -13 362 0 190 3 356
6 369 l6 22 382 -2 381 -3 5 -330z m2260 316 c16 -30 14 -712 -2 -734 -12 -15
-46 -17 -333 -19 l-320 -3 -5 -330 -5 -330 -381 -3 -382 -2 -6 22 c-3 13 -6
179 -6 369 0 261 3 349 13 362 11 15 46 17 337 19 l325 3 3 320 c1 176 4 326
7 333 3 9 88 12 374 12 356 0 371 -1 381 -19z m940 -316 l5 -330 320 -3 c287
-2 321 -4 332 -19 19 -24 19 -712 1 -736 -12 -16 -44 -17 -383 -15 l-370 3 -5
330 -5 330 -325 3 c-291 2 -326 4 -337 19 -10 13 -13 101 -13 362 0 190 3 356
6 369 l6 22 382 -2 381 -3 5 -330z m2260 316 c16 -30 14 -712 -2 -734 -12 -15
-46 -17 -333 -19 l-320 -3 -5 -330 -5 -330 -381 -3 -382 -2 -6 22 c-3 13 -6
179 -6 369 0 261 3 349 13 362 11 15 46 17 337 19 l325 3 3 320 c1 176 4 326
7 333 3 9 88 12 374 12 356 0 371 -1 381 -19z m940 -316 l5 -330 320 -3 c287
-2 321 -4 333 -19 18 -24 18 -712 0 -736 -12 -16 -44 -17 -383 -15 l-370 3 -5
330 -5 330 -325 3 c-291 2 -326 4 -337 19 -10 13 -13 101 -13 362 0 190 3 356
6 369 l6 22 382 -2 381 -3 5 -330z m2260 316 c16 -30 14 -712 -2 -734 -12 -15
-46 -17 -333 -19 l-320 -3 -5 -330 -5 -330 -381 -3 -382 -2 -6 22 c-3 13 -6
179 -6 369 0 261 3 349 13 362 11 15 46 17 337 19 l325 3 3 320 c1 176 4 326
7 333 3 9 88 12 374 12 356 0 371 -1 381 -19z m940 -316 l5 -330 320 -3 c287
-2 321 -4 333 -19 9 -13 12 -103 12 -368 0 -265 -3 -355 -12 -368 -12 -16 -44
-17 -383 -15 l-370 3 -5 330 -5 330 -325 3 c-291 2 -326 4 -337 19 -10 13 -13
101 -13 362 0 190 3 356 6 369 l6 22 382 -2 381 -3 5 -330z m2260 316 c16 -30
14 -712 -2 -734 -12 -15 -46 -17 -333 -19 l-320 -3 -5 -330 -5 -330 -381 -3
-382 -2 -6 22 c-3 13 -6 179 -6 369 0 261 3 349 13 362 11 15 46 17 337 19
l325 3 3 320 c1 176 4 326 7 333 3 9 88 12 374 12 356 0 371 -1 381 -19z
m-8926 -927 c8 -20 8 -1128 0 -1148 -6 -14 -66 -16 -584 -16 -518 0 -578 2
-584 16 -8 20 -8 1128 0 1148 6 14 66 16 584 16 518 0 578 -2 584 -16z m3200
0 c8 -20 8 -1128 0 -1148 -6 -14 -66 -16 -584 -16 -518 0 -578 2 -584 16 -8
20 -8 1128 0 1148 6 14 66 16 584 16 518 0 578 -2 584 -16z m3200 0 c8 -20 8
-1128 0 -1148 -6 -14 -66 -16 -584 -16 -518 0 -578 2 -584 16 -8 20 -8 1128 0
1148 6 14 66 16 584 16 518 0 578 -2 584 -16z m-8674 -673 c16 -30 14 -712 -2
-734 -12 -15 -46 -17 -333 -19 l-320 -3 -5 -330 -5 -330 -375 -3 c-344 -2
-376 -1 -387 15 -19 24 -19 712 0 736 11 15 46 17 337 19 l325 3 3 320 c1 176
4 326 7 333 3 9 88 12 374 12 356 0 371 -1 381 -19z m940 -316 l5 -330 320 -3
c287 -2 321 -4 332 -19 19 -24 19 -712 1 -736 -12 -16 -44 -17 -383 -15 l-370
3 -5 330 -5 330 -325 3 c-291 2 -326 4 -337 19 -10 13 -13 101 -13 362 0 190
3 356 6 369 l6 22 382 -2 381 -3 5 -330z m2260 316 c16 -30 14 -712 -2 -734
-12 -15 -46 -17 -333 -19 l-320 -3 -5 -330 -5 -330 -381 -3 -382 -2 -6 22 c-3
13 -6 179 -6 369 0 261 3 349 13 362 11 15 46 17 337 19 l325 3 3 320 c1 176
4 326 7 333 3 9 88 12 374 12 356 0 371 -1 381 -19z m940 -316 l5 -330 320 -3
c287 -2 321 -4 333 -19 18 -24 18 -712 0 -736 -12 -16 -44 -17 -383 -15 l-370
3 -5 330 -5 330 -325 3 c-291 2 -326 4 -337 19 -10 13 -13 101 -13 362 0 190
3 356 6 369 l6 22 382 -2 381 -3 5 -330z m2260 316 c16 -30 14 -712 -2 -734
-12 -15 -46 -17 -333 -19 l-320 -3 -5 -330 -5 -330 -381 -3 -382 -2 -6 22 c-3
13 -6 179 -6 369 0 261 3 349 13 362 11 15 46 17 337 19 l325 3 3 320 c1 176
4 326 7 333 3 9 88 12 374 12 356 0 371 -1 381 -19z m940 -316 l5 -330 320 -3
c287 -2 321 -4 333 -19 18 -24 18 -712 0 -736 -12 -16 -44 -17 -383 -15 l-370
3 -5 330 -5 330 -325 3 c-291 2 -326 4 -337 19 -10 13 -13 101 -13 362 0 190
3 356 6 369 l6 22 382 -2 381 -3 5 -330z m2260 316 c16 -30 14 -712 -2 -734
-12 -15 -46 -17 -333 -19 l-320 -3 -5 -330 -5 -330 -381 -3 -382 -2 -6 22 c-3
13 -6 179 -6 369 0 261 3 349 13 362 11 15 46 17 337 19 l325 3 3 320 c1 176
4 326 7 333 3 9 88 12 374 12 356 0 371 -1 381 -19z m940 -316 l5 -330 320 -3
c287 -2 321 -4 333 -19 9 -13 12 -103 12 -368 0 -265 -3 -355 -12 -368 -12
-16 -44 -17 -383 -15 l-370 3 -5 330 -5 330 -325 3 c-291 2 -326 4 -337 19
-10 13 -13 101 -13 362 0 190 3 356 6 369 l6 22 382 -2 381 -3 5 -330z m-9866
-611 c8 -20 8 -1128 0 -1148 -6 -14 -66 -16 -584 -16 -518 0 -578 2 -584 16
-8 20 -8 1128 0 1148 6 14 66 16 584 16 518 0 578 -2 584 -16z m3200 0 c8 -20
8 -1128 0 -1148 -6 -14 -66 -16 -584 -16 -518 0 -578 2 -584 16 -8 20 -8 1128
0 1148 6 14 66 16 584 16 518 0 578 -2 584 -16z m3200 0 c8 -20 8 -1128 0
-1148 -6 -14 -66 -16 -584 -16 -518 0 -578 2 -584 16 -8 20 -8 1128 0 1148 6
14 66 16 584 16 518 0 578 -2 584 -16z m3200 0 c8 -20 8 -1128 0 -1148 -6 -14
-66 -16 -584 -16 -518 0 -578 2 -584 16 -8 20 -8 1128 0 1148 6 14 66 16 584
16 518 0 578 -2 584 -16z m-10934 -989 l5 -330 320 -3 c287 -2 321 -4 332 -19
19 -24 19 -712 1 -736 -12 -16 -44 -17 -383 -15 l-370 3 -5 330 -5 330 -325 3
c-291 2 -326 4 -337 19 -10 13 -13 101 -13 362 0 190 3 356 6 369 l6 22 382
-2 381 -3 5 -330z m2260 316 c16 -30 14 -712 -2 -734 -12 -15 -46 -17 -333
-19 l-320 -3 -5 -330 -5 -330 -375 -3 c-344 -2 -376 -1 -387 15 -10 13 -13
103 -13 368 0 265 3 355 13 368 11 15 46 17 337 19 l325 3 3 320 c1 176 4 326
7 333 3 9 88 12 374 12 356 0 371 -1 381 -19z m940 -316 l5 -330 320 -3 c287
-2 321 -4 332 -19 19 -24 19 -712 1 -736 -12 -16 -44 -17 -383 -15 l-370 3 -5
330 -5 330 -325 3 c-291 2 -326 4 -337 19 -10 13 -13 101 -13 362 0 190 3 356
6 369 l6 22 382 -2 381 -3 5 -330z m2260 316 c16 -30 14 -712 -2 -734 -12 -15
-46 -17 -333 -19 l-320 -3 -5 -330 -5 -330 -375 -3 c-344 -2 -376 -1 -387 15
-10 13 -13 103 -13 368 0 265 3 355 13 368 11 15 46 17 337 19 l325 3 3 320
c1 176 4 326 7 333 3 9 88 12 374 12 356 0 371 -1 381 -19z m940 -316 l5 -330
320 -3 c287 -2 321 -4 333 -19 18 -24 18 -712 0 -736 -12 -16 -44 -17 -383
-15 l-370 3 -5 330 -5 330 -325 3 c-291 2 -326 4 -337 19 -10 13 -13 101 -13
362 0 190 3 356 6 369 l6 22 382 -2 381 -3 5 -330z m2260 316 c16 -30 14 -712
-2 -734 -12 -15 -46 -17 -333 -19 l-320 -3 -5 -330 -5 -330 -375 -3 c-344 -2
-376 -1 -387 15 -19 24 -19 712 0 736 11 15 46 17 337 19 l325 3 3 320 c1 176
4 326 7 333 3 9 88 12 374 12 356 0 371 -1 381 -19z m940 -316 l5 -330 320 -3
c287 -2 321 -4 333 -19 9 -13 12 -103 12 -368 0 -265 -3 -355 -12 -368 -12
-16 -44 -17 -383 -15 l-370 3 -5 330 -5 330 -325 3 c-291 2 -326 4 -337 19
-10 13 -13 101 -13 362 0 190 3 356 6 369 l6 22 382 -2 381 -3 5 -330z m2260
316 c16 -30 14 -712 -2 -734 -12 -15 -46 -17 -333 -19 l-320 -3 -5 -330 -5
-330 -375 -3 c-344 -2 -376 -1 -387 15 -10 13 -13 103 -13 368 0 265 3 355 13
368 11 15 46 17 337 19 l325 3 3 320 c1 176 4 326 7 333 3 9 88 12 374 12 356
0 371 -1 381 -19z"/>
</g>
</svg>
